<svg xmlns="http://www.w3.org/2000/svg" version="1.1" xmlns:xlink="http://www.w3.org/1999/xlink"
    xmlns:svgjs="http://svgjs.com/svgjs" width="512" height="512" x="0" y="0" viewBox="0 0 512.936 512.936"
    style="enable-background:new 0 0 512 512" xml:space="preserve" class="">
    <g>
        <path fill="#ffc200"
            d="m485.213 183.65-115.951 50.132a13.392 13.392 0 0 1-16.069-4.311L256.552 99.249 160.78 229.431a13.391 13.391 0 0 1-16.068 4.371L27.839 183.65v194.803l228.713 28.412 228.661-28.412z"
            data-original="#ffc200" class=""></path>
        <path fill="#ff9700"
            d="m353.192 229.47-96.64-130.221-.236.321v307.266l.236.029 228.661-28.412V183.65l-115.951 50.132a13.394 13.394 0 0 1-16.07-4.312zM27.839 408.453h457.374v38.391H27.839z"
            data-original="#ff9700" class=""></path>
        <circle cx="44.964" cy="176.208" r="29.444" fill="#fff4f4" data-original="#fff4f4"></circle>
        <path fill="#ffdc78"
            d="M44.964 220.652c-24.506 0-44.443-19.938-44.443-44.444s19.938-44.444 44.443-44.444c24.507 0 44.444 19.938 44.444 44.444s-19.937 44.444-44.444 44.444zm0-58.888c-7.964 0-14.443 6.479-14.443 14.444S37 190.652 44.964 190.652c7.965 0 14.444-6.479 14.444-14.444s-6.479-14.444-14.444-14.444z"
            data-original="#ffdc78"></path>
        <circle cx="468.467" cy="176.208" r="29.444" fill="#ebebf0" data-original="#ebebf0"></circle>
        <path fill="#ffc200"
            d="M468.467 220.652c-24.506 0-44.443-19.938-44.443-44.444s19.938-44.444 44.443-44.444c24.507 0 44.444 19.938 44.444 44.444s-19.937 44.444-44.444 44.444zm0-58.888c-7.964 0-14.443 6.479-14.443 14.444s6.479 14.444 14.443 14.444c7.965 0 14.444-6.479 14.444-14.444s-6.479-14.444-14.444-14.444z"
            data-original="#ffc200" class=""></path>
        <path fill="#ff1100"
            d="M297.288 289.662c0 22.628-18.344 40.972-40.972 40.972s-40.972-18.344-40.972-40.972 40.972-73.968 40.972-73.968 40.972 51.34 40.972 73.968z"
            data-original="#ff1100"></path>
        <circle cx="80.017" cy="331.36" r="15" fill="#fff4f4" data-original="#fff4f4"></circle>
        <circle cx="144.556" cy="331.36" r="15" fill="#fff4f4" data-original="#fff4f4"></circle>
        <circle cx="364.728" cy="331.36" r="15" fill="#ebebf0" data-original="#ebebf0"></circle>
        <circle cx="429.267" cy="331.36" r="15" fill="#ebebf0" data-original="#ebebf0"></circle>
        <path fill="#ffdc78" d="M27.838 408.453v-30h457.374v30z" data-original="#ffdc78"></path>
        <path fill="#ff7300" d="M256.316 408.453h228.897v38.391H256.316z" data-original="#ff7300"></path>
        <path fill="#ffc200" d="M256.316 378.453h228.897v30H256.316z" data-original="#ffc200" class=""></path>
        <path fill="#e00000"
            d="M297.288 289.662c0-22.628-40.972-73.969-40.972-73.969v114.941c22.628 0 40.972-18.343 40.972-40.972z"
            data-original="#e00000"></path>
        <path fill="#ffdc78"
            d="M497.936 474.595H15c-8.284 0-15-6.716-15-15s6.716-15 15-15h482.936c8.284 0 15 6.716 15 15s-6.716 15-15 15z"
            data-original="#ffdc78"></path>
        <path fill="#ffc200" d="M497.936 444.595h-241.62v30h241.62c8.284 0 15-6.716 15-15s-6.716-15-15-15z"
            data-original="#ffc200" class=""></path>
        <path fill="#ffdc78"
            d="M256.315 346.36c-31.263 0-56.698-25.435-56.698-56.698 0-8.082 2.39-22.482 23.05-54.077 10.529-16.1 20.919-29.153 21.356-29.701a15.727 15.727 0 0 1 24.583 0c.437.548 10.828 13.601 21.357 29.701 20.662 31.595 23.051 45.994 23.051 54.077 0 31.264-25.434 56.698-56.699 56.698zm.03-104.465c-13.656 19.391-25.276 39.863-25.276 47.767 0 13.921 11.325 25.247 25.246 25.247 13.922 0 25.247-11.325 25.247-25.247.001-6.645-9.738-25.87-25.217-47.767z"
            data-original="#ffdc78"></path>
        <path fill="#ffc200"
            d="M268.606 205.884a15.724 15.724 0 0 0-12.291-5.917v41.969l.029-.042c15.479 21.897 25.218 41.122 25.218 47.767 0 13.921-11.325 25.247-25.247 25.247v31.452c31.264 0 56.698-25.435 56.698-56.698 0-8.082-2.39-22.482-23.051-54.077-10.528-16.1-20.918-29.153-21.356-29.701z"
            data-original="#ffc200" class=""></path>
        <circle cx="256.552" cy="88.016" r="34.676" fill="#fff4f4" data-original="#fff4f4"></circle>
        <path fill="#ebebf0"
            d="M256.552 53.341c-.079 0-.157.005-.236.006v69.339c.079.001.157.006.236.006 19.151 0 34.676-15.525 34.676-34.676-.001-19.15-15.525-34.675-34.676-34.675z"
            data-original="#ebebf0"></path>
        <path fill="#ffdc78"
            d="M256.552 137.692c-27.392 0-49.676-22.285-49.676-49.676s22.284-49.675 49.676-49.675 49.676 22.284 49.676 49.675-22.285 49.676-49.676 49.676zm0-69.351c-10.85 0-19.676 8.826-19.676 19.675s8.826 19.676 19.676 19.676 19.676-8.827 19.676-19.676-8.827-19.675-19.676-19.675z"
            data-original="#ffdc78"></path>
        <path fill="#ffc200"
            d="M256.552 38.341c-.079 0-.157.006-.236.006v30.006c.08-.001.156-.012.236-.012 10.85 0 19.676 8.826 19.676 19.675s-8.826 19.676-19.676 19.676c-.08 0-.156-.011-.236-.012v30.006c.079 0 .157.006.236.006 27.392 0 49.676-22.285 49.676-49.676s-22.285-49.675-49.676-49.675z"
            data-original="#ffc200" class=""></path>
    </g>
</svg>