<svg xmlns="http://www.w3.org/2000/svg" version="1.1" xmlns:xlink="http://www.w3.org/1999/xlink"
    xmlns:svgjs="http://svgjs.com/svgjs" width="512" height="512" x="0" y="0" viewBox="0 0 612 612"
    style="enable-background:new 0 0 512 512" xml:space="preserve" class="">
    <g>
        <path
            d="m432.272 68.692-20.554 35.567 71.221 41.109 20.555-35.568c5.661-9.873 2.29-22.4-7.545-28.104l-35.567-20.555c-9.84-5.698-22.405-2.327-28.11 7.551zM306 92.56c13 0 25.699 1.272 38.25 3.065V62.357l26.297-.201V19.125C370.547 8.554 361.993 0 351.422 0h-90.643c-10.571 0-19.125 8.554-19.125 19.125v43.031l26.096.201v33.268C280.301 93.832 293 92.56 306 92.56zM306 114.75c-137.312 0-248.625 111.312-248.625 248.625S168.688 612 306 612s248.625-111.312 248.625-248.625S443.312 114.75 306 114.75zm116.185 365.479L277.312 379.933V238.34h41.808v119.689l126.86 87.827-23.795 34.373z"
            fill="#146c94" data-original="#000000" class=""></path>
    </g>
</svg>